<svg width="20" height="20" viewBox="0 0 20 20" fill="none" xmlns="http://www.w3.org/2000/svg">
<path d="M9.99981 18.3337C9.99981 18.3337 3.33314 14.5837 3.33314 8.50033C3.3109 7.61092 3.4669 6.72606 3.79196 5.89789C4.11702 5.06972 4.60456 4.31498 5.22584 3.67817C5.84713 3.04135 6.58959 2.53533 7.40949 2.18992C8.22939 1.84452 9.11012 1.66671 9.99981 1.66699C10.8895 1.66671 11.7702 1.84452 12.5901 2.18992C13.41 2.53533 14.1525 3.04135 14.7738 3.67817C15.3951 4.31498 15.8826 5.06972 16.2077 5.89789C16.5327 6.72606 16.6887 7.61092 16.6665 8.50033C16.6665 14.5837 9.99981 18.3337 9.99981 18.3337Z" stroke="#999999" stroke-width="1.5" stroke-linecap="round" stroke-linejoin="round"/>
<path d="M10 10.833C11.3807 10.833 12.5 9.71372 12.5 8.33301C12.5 6.9523 11.3807 5.83301 10 5.83301C8.61929 5.83301 7.5 6.9523 7.5 8.33301C7.5 9.71372 8.61929 10.833 10 10.833Z" stroke="#999999" stroke-width="1.5" stroke-linecap="round" stroke-linejoin="round"/>
</svg>
